<?xml version="1.0" encoding="utf-8"?>
<!-- Generator: Adobe Illustrator 28.0.0, SVG Export Plug-In . SVG Version: 6.00 Build 0)  -->
<svg version="1.1" id="Layer_1" xmlns="http://www.w3.org/2000/svg" xmlns:xlink="http://www.w3.org/1999/xlink" x="0px" y="0px"
	 viewBox="0 0 66.5 24" style="enable-background:new 0 0 66.5 24;" xml:space="preserve">
<style type="text/css">
	.st0{fill:#A7A9AC;}
	.st1{enable-background:new    ;}
</style>
<path class="st0" d="M13,11.3c2.1-1.4,4.6-4.1,3.3-8c0-0.1-0.1-0.1-0.1-0.1c-3.9-1-6.3,1.5-7.6,3.7c0,0.1-0.2,0.1-0.2,0.1
	c0,0,0,0-0.1-0.1C6.9,4.7,4.4,2.2,0.5,3.3c-0.1,0-0.1,0.1-0.1,0.1c-1.2,4,1.4,6.6,3.6,7.9c0.1,0,0.1,0.2,0.1,0.2c0,0,0,0-0.1,0.1
	c-2.2,1.3-4.8,3.8-3.7,7.8c0,0.1,0.1,0.1,0.1,0.1c4.1,1.2,6.6-1.5,8-3.7c0-0.1,0.2-0.1,0.2-0.1c0,0,0,0,0.1,0.1
	c1.4,2.2,4.1,4.8,8.1,3.4c0.1,0,0.1-0.1,0.1-0.1c1-4-1.7-6.4-3.9-7.7C13,11.5,12.9,11.4,13,11.3C13,11.3,13,11.3,13,11.3z M9.3,13.1
	H7.8c-0.5,0-0.9-0.4-0.9-0.9v-1.5c0-0.5,0.4-0.9,0.9-0.9h1.5c0.5,0,0.9,0.4,0.9,0.9v1.5C10.2,12.7,9.8,13.1,9.3,13.1z"/>
<g class="st1">
	<path class="st0" d="M24.5,16.8c0,0.4,0.1,0.7,0.2,0.8c0.1,0.1,0.4,0.2,0.7,0.2c0.2,0,0.4,0.1,0.6,0.1c0.1,0.1,0.2,0.2,0.2,0.4v1.1
		c-0.2,0.1-0.5,0.1-0.8,0.2s-0.5,0.1-0.9,0.1c-0.5,0-0.9-0.1-1.2-0.2c-0.3-0.1-0.6-0.4-0.7-0.7c-0.2-0.3-0.3-0.7-0.4-1.1
		c-0.1-0.4-0.1-0.9-0.1-1.5V3H24c0.2,0,0.3,0,0.4,0.1c0.1,0.1,0.1,0.2,0.1,0.4V16.8z"/>
	<path class="st0" d="M29.4,5.9c-0.5,0-0.9-0.1-1.1-0.3c-0.2-0.2-0.3-0.5-0.3-1c0-0.4,0.1-0.8,0.3-1c0.2-0.2,0.6-0.3,1.1-0.3
		c0.5,0,0.9,0.1,1.1,0.3c0.2,0.2,0.3,0.5,0.3,1c0,0.5-0.1,0.8-0.3,1C30.3,5.8,29.9,5.9,29.4,5.9z M30.6,19.5h-1.8
		c-0.4,0-0.6-0.2-0.6-0.5V7.8H30c0.4,0,0.6,0.2,0.6,0.5V19.5z"/>
</g>
<g class="st1">
	<path class="st0" d="M35.7,16.8c0,0.4,0.1,0.7,0.2,0.8c0.1,0.1,0.4,0.2,0.7,0.2c0.2,0,0.4,0.1,0.6,0.1c0.1,0.1,0.2,0.2,0.2,0.4v1.1
		c-0.2,0.1-0.5,0.1-0.8,0.2s-0.5,0.1-0.9,0.1c-0.5,0-0.9-0.1-1.2-0.2c-0.3-0.1-0.6-0.4-0.7-0.7c-0.2-0.3-0.3-0.7-0.4-1.1
		c-0.1-0.4-0.1-0.9-0.1-1.5V3h1.8c0.2,0,0.3,0,0.4,0.1c0.1,0.1,0.1,0.2,0.1,0.4V16.8z"/>
</g>
<g class="st1">
	<path class="st0" d="M42.4,19.7c-1.2,0-2.1-0.3-2.7-1c-0.6-0.7-0.9-1.6-0.9-2.7c0-0.7,0.1-1.3,0.3-1.8c0.2-0.5,0.5-0.9,0.9-1.1
		c0.4-0.3,0.9-0.5,1.4-0.6c0.6-0.1,1.1-0.2,1.8-0.2h2.4v-0.8c0-0.8-0.2-1.3-0.6-1.6C44.7,9.5,44,9.4,43,9.4c-0.7,0-1.3,0-1.8,0.1
		c-0.5,0.1-0.9,0.1-1.1,0.1c-0.2,0-0.3,0-0.4-0.1s-0.1-0.2-0.1-0.4v-1c0.5-0.2,1.1-0.3,1.8-0.4s1.4-0.2,2.1-0.2
		c0.9,0,1.6,0.1,2.2,0.3C46.2,8,46.7,8.3,47,8.6c0.4,0.4,0.6,0.8,0.7,1.3c0.1,0.5,0.2,1.1,0.2,1.7v7.9h-1.4c-0.3,0-0.4-0.1-0.5-0.2
		C46.1,19.2,46,19,46,18.9l-0.1-0.7c-0.4,0.4-0.9,0.7-1.4,1S43.2,19.7,42.4,19.7z M43.3,13.9c-0.5,0-0.8,0-1.2,0.1s-0.5,0.2-0.7,0.4
		c-0.2,0.2-0.3,0.4-0.4,0.6c-0.1,0.2-0.1,0.5-0.1,0.8c0,0.7,0.2,1.2,0.5,1.5c0.3,0.3,0.9,0.5,1.5,0.5c0.6,0,1.1-0.1,1.6-0.4
		c0.4-0.2,0.8-0.5,1.1-0.8v-2.9H43.3z"/>
	<path class="st0" d="M58.3,19.1c-0.4,0.2-0.8,0.3-1.4,0.4c-0.6,0.1-1.1,0.2-1.7,0.2c-0.9,0-1.6-0.1-2.2-0.4
		c-0.6-0.3-1.1-0.7-1.4-1.2s-0.6-1.2-0.8-1.9s-0.3-1.6-0.3-2.6c0-2.1,0.4-3.7,1.1-4.7s1.9-1.5,3.5-1.5c0.5,0,1,0,1.5,0.1
		c0.5,0.1,0.9,0.2,1.1,0.3C58,8,58.1,8.1,58.1,8.2c0.1,0.1,0.1,0.3,0.1,0.4v1c-0.5-0.1-1-0.1-1.4-0.2c-0.4,0-0.8-0.1-1.2-0.1
		c-0.5,0-1,0.1-1.3,0.2c-0.4,0.1-0.7,0.4-0.9,0.7c-0.2,0.3-0.4,0.7-0.5,1.3c-0.1,0.5-0.1,1.2-0.1,2c0,0.9,0.1,1.6,0.2,2.1
		s0.3,1,0.5,1.3c0.2,0.3,0.5,0.5,0.9,0.6s0.7,0.2,1.2,0.2c0.4,0,0.9,0,1.3-0.1s0.7-0.1,0.9-0.1c0.4,0,0.6,0.2,0.6,0.6V19.1z"/>
</g>
</svg>
