<svg id="Layer_1" data-name="Layer 1" xmlns="http://www.w3.org/2000/svg" viewBox="0 0 66.54 24.05"><defs><style>.cls-1,.cls-2{fill:#a7a9ac;}.cls-2{font-size:23px;font-family:HPSimplified-Regular, HP Simplified;}.cls-3{letter-spacing:0em;}.cls-4{letter-spacing:0em;}</style></defs><path class="cls-1" d="M17.22,11.9c2.13-1.45,4.56-4.06,3.25-8a.23.23,0,0,0-.14-.13c-3.89-1-6.27,1.5-7.58,3.7a.17.17,0,0,1-.29,0C11.11,5.33,8.65,2.85,4.73,3.94a.17.17,0,0,0-.13.13C3.38,8.08,6,10.63,8.18,12a.17.17,0,0,1,0,.29C6,13.63,3.36,16.12,4.47,20.11a.23.23,0,0,0,.13.14c4.07,1.24,6.64-1.47,8-3.69a.17.17,0,0,1,.29,0C14.32,18.74,17,21.37,21,20a.23.23,0,0,0,.13-.14c1-4-1.65-6.41-3.89-7.69A.17.17,0,0,1,17.22,11.9Zm-3.71,1.82H12a.9.9,0,0,1-.9-.9V11.34a.9.9,0,0,1,.9-.9h1.48a.9.9,0,0,1,.9.9v1.48A.91.91,0,0,1,13.51,13.72Z" transform="translate(-4.2 -0.64)"/><text class="cls-2" transform="translate(20.8 19.47)">li<tspan class="cls-3" x="11.22" y="0">l</tspan><tspan class="cls-4" x="17.11" y="0">ac</tspan></text></svg>